<?xml version="1.0" standalone="no"?>
<!DOCTYPE svg PUBLIC "-//W3C//DTD SVG 20010904//EN"
 "http://www.w3.org/TR/2001/REC-SVG-20010904/DTD/svg10.dtd">
<svg version="1.0" xmlns="http://www.w3.org/2000/svg"
 width="256.000000pt" height="256.000000pt" viewBox="0 0 256.000000 256.000000"
 preserveAspectRatio="xMidYMid meet">
<metadata>
Created by potrace 1.11, written by Peter Selinger 2001-2013
</metadata>
<g transform="translate(0.000000,256.000000) scale(0.100000,-0.100000)"
fill="#000000" stroke="none">
<path d="M1075 2369 c-236 -47 -442 -160 -600 -331 -200 -216 -299 -479 -290
-773 2 -71 6 -143 10 -160 19 -91 28 -121 55 -196 57 -158 135 -276 265 -404
94 -93 172 -148 287 -204 109 -53 194 -79 318 -99 56 -9 271 -9 325 0 250 42
473 160 639 339 446 482 377 1238 -149 1631 -243 182 -565 256 -860 197z"/>
</g>
</svg>
