<?xml version="1.0" standalone="no"?>
<!DOCTYPE svg PUBLIC "-//W3C//DTD SVG 20010904//EN"
 "http://www.w3.org/TR/2001/REC-SVG-20010904/DTD/svg10.dtd">
<svg version="1.0" xmlns="../../../../external.html?link=http://www.w3.org/2000/svg"
 width="500.000000pt" height="500.000000pt" viewBox="0 0 500.000000 500.000000"
 preserveAspectRatio="xMidYMid meet">
<metadata>
Created by potrace 1.11, written by Peter Selinger 2001-2013
</metadata>
<g transform="translate(0.000000,500.000000) scale(0.100000,-0.100000)"
fill="#000000" stroke="none">
<path d="M1542 3872 c-33 -29 -48 -54 -72 -119 l-29 -82 5 -198 6 -198 52
-176 53 -176 133 -218 c99 -160 148 -230 186 -264 28 -25 59 -61 68 -79 16
-31 16 -34 -3 -61 -11 -16 -48 -107 -81 -202 -46 -130 -63 -197 -70 -264 -6
-49 -17 -152 -26 -228 l-17 -139 24 -23 c13 -13 80 -62 148 -109 l125 -86 75
0 c57 0 113 -10 228 -41 l152 -41 78 21 c43 12 109 29 148 40 38 10 105 19
149 20 l79 2 114 76 c62 42 130 90 150 108 l36 31 -17 139 c-9 77 -20 181 -25
230 -7 68 -25 133 -70 263 -34 96 -70 187 -81 203 -21 28 -21 28 -1 66 11 21
40 54 64 73 35 27 77 87 183 260 l138 225 51 171 52 172 6 201 6 202 -30 84
c-25 70 -38 90 -74 119 l-44 36 -38 -22 c-55 -31 -192 -139 -234 -184 -84 -89
-244 -305 -387 -520 l-153 -231 -9 -119 c-5 -65 -10 -129 -10 -140 0 -20 -5
-21 -80 -21 -75 0 -80 1 -80 21 0 11 -5 75 -10 141 l-10 120 -153 230 c-142
215 -302 430 -386 519 -55 59 -255 209 -274 206 -1 0 -21 -17 -45 -38z"/>
</g>
</svg>
