<?xml version="1.0" encoding="utf-8"?>
<!-- Generator: Adobe Illustrator 21.0.0, SVG Export Plug-In . SVG Version: 6.00 Build 0)  -->
<svg version="1.1" id="Layer_1" xmlns="http://www.w3.org/2000/svg" xmlns:xlink="http://www.w3.org/1999/xlink" x="0px" y="0px"
	 viewBox="0 0 50 50" style="enable-background:new 0 0 50 50;" xml:space="preserve">
<style type="text/css">
	.st0{fill:#010000;}
	.st1{fill:none;stroke:#000000;stroke-width:0.35;stroke-miterlimit:10;}
	.st2{fill:none;stroke:#000000;stroke-linecap:round;stroke-linejoin:round;stroke-dasharray:0,2.856;}
	.st3{fill:none;stroke:#C0C0C0;stroke-linecap:round;stroke-linejoin:round;stroke-dasharray:0,2.856;}
	.st4{fill:none;stroke:#000000;stroke-linecap:round;stroke-linejoin:round;}
	.st5{fill:none;stroke:#000000;stroke-width:0.25;}
	.st6{fill:none;stroke:#000000;stroke-width:0.5;stroke-miterlimit:10;}
	.st7{fill:#2828BC;}
	.st8{fill:#707070;}
	.st9{fill:none;stroke:#C0C0C0;stroke-width:0.25;stroke-miterlimit:10;}
	.st10{fill:none;stroke:#000000;stroke-miterlimit:10;}
	.st11{fill:#C0C0C0;}
	.st12{fill:none;stroke:#C0C0C0;stroke-width:0.25;stroke-miterlimit:10;stroke-dasharray:1.2775,1.2775;}
	.st13{fill:none;stroke:#C0C0C0;stroke-width:0.25;stroke-miterlimit:10;stroke-dasharray:2.0637,2.0637;}
	.st14{fill:#FFFFFF;}
	.st15{fill:#1D1D1B;}
	.st16{fill:#231F20;}
</style>
<path class="st14" d="M25,49C11.8,49,1,38.2,1,25S11.8,1,25,1s24,10.7,24,24S38.2,49,25,49z M25,3C12.8,3,3,12.8,3,25s9.9,22,22,22
	s22-9.9,22-22S37.2,3,25,3z"/>
<g>
	<path class="st14" d="M20.8,29c-0.7-0.7-1-1.8-1-3.1c0-1.5,0.5-3,1.6-4.3c1-1.3,2.3-2,3.9-2c0.9,0,1.6,0.2,2.1,0.7
		c0.4,0.4,0.6,0.8,0.8,1.3l0.5-1.6h2.4l-1.6,5.6c-0.1,0.5-0.2,0.8-0.3,1C29,26.7,29,26.9,29,27.1c0,0.3,0.1,0.5,0.3,0.7
		s0.4,0.3,0.8,0.3c0.7,0,1.5-0.5,2.2-1.4s1.1-2.2,1.1-3.8c0-2.3-1-4-3-5.1c-1.3-0.6-2.7-1-4.3-1c-2.9,0-5.2,0.9-7,2.7
		c-1.6,1.6-2.4,3.5-2.4,5.8c0,2.5,0.9,4.5,2.8,5.9c1.6,1.3,3.7,1.9,6,1.9c1.6,0,3.1-0.3,4.5-0.9c0.8-0.3,1.6-0.8,2.4-1.3l0.3-0.2
		l0.9,1.4c-1.2,0.9-2.5,1.7-3.9,2.1c-1.4,0.5-2.9,0.7-4.4,0.7c-3.5,0-6.3-1.1-8.2-3.3c-1.6-1.8-2.4-4-2.4-6.5c0-2.8,1-5.2,3-7.1
		c2.1-2.1,4.8-3.1,8.1-3.1c2.7,0,4.9,0.7,6.7,2.1c1.9,1.5,2.8,3.5,2.8,5.9c0,1.9-0.6,3.6-1.8,5c-1.2,1.4-2.5,2.1-4,2.1
		c-0.8,0-1.4-0.2-1.8-0.7c-0.4-0.4-0.6-0.9-0.6-1.4c0-0.1,0-0.1,0-0.2c0-0.1,0-0.2,0-0.2c-0.3,0.6-0.7,1.1-1.1,1.5
		c-0.7,0.7-1.6,1-2.6,1C22.4,30.1,21.5,29.7,20.8,29z M26.9,21.7c-0.3-0.3-0.6-0.5-1.1-0.5c-0.9,0-1.7,0.6-2.3,1.7
		c-0.6,1.1-1,2.2-1,3.2c0,0.6,0.1,1.1,0.4,1.5c0.3,0.4,0.7,0.6,1.2,0.6c0.9,0,1.7-0.7,2.2-2.1c0.6-1.4,0.9-2.5,0.9-3.3
		C27.3,22.4,27.2,22,26.9,21.7z"/>
</g>
</svg>
