<?xml version="1.0" encoding="utf-8"?>
<!-- Generator: Adobe Illustrator 21.0.0, SVG Export Plug-In . SVG Version: 6.00 Build 0)  -->
<svg version="1.1" id="Layer_1" xmlns="http://www.w3.org/2000/svg" xmlns:xlink="http://www.w3.org/1999/xlink" x="0px" y="0px"
	 viewBox="0 0 100 50" style="enable-background:new 0 0 100 50;" xml:space="preserve">
<style type="text/css">
	.st0{fill:#010000;}
	.st1{fill:none;stroke:#000000;stroke-width:0.35;stroke-miterlimit:10;}
	.st2{fill:none;stroke:#000000;stroke-linecap:round;stroke-linejoin:round;stroke-dasharray:0,2.856;}
	.st3{fill:none;stroke:#C0C0C0;stroke-linecap:round;stroke-linejoin:round;stroke-dasharray:0,2.856;}
	.st4{fill:none;stroke:#000000;stroke-linecap:round;stroke-linejoin:round;}
	.st5{fill:none;stroke:#000000;stroke-width:0.25;}
	.st6{fill:none;stroke:#000000;stroke-width:0.5;stroke-miterlimit:10;}
	.st7{fill:#2828BC;}
	.st8{fill:#707070;}
	.st9{fill:none;stroke:#C0C0C0;stroke-width:0.25;stroke-miterlimit:10;}
	.st10{fill:none;stroke:#000000;stroke-miterlimit:10;}
	.st11{fill:#C0C0C0;}
	.st12{fill:none;stroke:#C0C0C0;stroke-width:0.25;stroke-miterlimit:10;stroke-dasharray:1.2775,1.2775;}
	.st13{fill:none;stroke:#C0C0C0;stroke-width:0.25;stroke-miterlimit:10;stroke-dasharray:2.0637,2.0637;}
	.st14{fill:#FFFFFF;}
	.st15{fill:#1D1D1B;}
	.st16{fill:#231F20;}
	.st17{fill:none;stroke:#000000;stroke-width:1.9167;stroke-linecap:round;stroke-linejoin:round;stroke-miterlimit:10;}
</style>
<path class="st14" d="M75,49H25C11.8,49,1,38.2,1,25S11.8,1,25,1h50c13.2,0,24,10.8,24,24S88.2,49,75,49z M25,3C12.9,3,3,12.9,3,25
	s9.9,22,22,22h50c12.1,0,22-9.9,22-22S87.1,3,75,3H25z"/>
<g>
	<path class="st14" d="M29.9,18.3c0.4,0.2,0.7,0.4,0.9,0.7c0.2,0.2,0.4,0.5,0.5,0.8c0.1,0.3,0.2,0.6,0.2,1c0,0.5-0.1,0.9-0.4,1.4
		c-0.2,0.4-0.6,0.8-1.2,0.9c0.5,0.2,0.8,0.4,1,0.8c0.2,0.3,0.3,0.8,0.3,1.5v0.7c0,0.4,0,0.7,0.1,0.9c0.1,0.3,0.2,0.4,0.4,0.6v0.2
		h-2.3c-0.1-0.2-0.1-0.4-0.1-0.5c-0.1-0.3-0.1-0.6-0.1-0.8l0-0.9c0-0.6-0.1-1-0.3-1.2c-0.2-0.2-0.6-0.3-1.2-0.3h-2v3.8h-2v-9.8h4.7
		C29,18.1,29.5,18.2,29.9,18.3z M25.6,19.8v2.6h2.2c0.4,0,0.8-0.1,1-0.2c0.4-0.2,0.6-0.6,0.6-1.1c0-0.6-0.2-1-0.6-1.2
		c-0.2-0.1-0.5-0.2-0.9-0.2H25.6z"/>
	<path class="st14" d="M38.3,20.8c0.5,0.2,0.9,0.6,1.2,1.1c0.3,0.4,0.5,0.9,0.6,1.5c0.1,0.3,0.1,0.8,0.1,1.4h-5.3
		c0,0.7,0.3,1.2,0.8,1.5c0.3,0.2,0.6,0.3,1,0.3c0.4,0,0.8-0.1,1-0.3c0.1-0.1,0.3-0.3,0.4-0.5h1.9c-0.1,0.4-0.3,0.9-0.7,1.3
		c-0.6,0.7-1.6,1.1-2.7,1.1c-1,0-1.8-0.3-2.5-0.9c-0.7-0.6-1.1-1.6-1.1-2.9c0-1.2,0.3-2.2,1-2.9c0.7-0.7,1.5-1,2.6-1
		C37.2,20.4,37.8,20.5,38.3,20.8z M35.5,22.4C35.2,22.7,35,23,35,23.5h3.2c0-0.5-0.2-0.9-0.5-1.1C37.4,22.1,37,22,36.6,22
		C36.1,22,35.7,22.1,35.5,22.4z"/>
	<path class="st14" d="M42.9,25.5c0,0.3,0.1,0.6,0.3,0.7c0.2,0.3,0.7,0.4,1.3,0.4c0.4,0,0.7-0.1,0.9-0.2c0.2-0.1,0.3-0.3,0.3-0.5
		c0-0.2-0.1-0.4-0.3-0.5c-0.2-0.1-0.8-0.3-2-0.6c-0.8-0.2-1.4-0.5-1.7-0.8c-0.3-0.3-0.5-0.7-0.5-1.3c0-0.7,0.3-1.2,0.8-1.7
		c0.5-0.5,1.3-0.7,2.2-0.7c0.9,0,1.6,0.2,2.2,0.5c0.6,0.4,0.9,1,1,1.9h-1.9c0-0.2-0.1-0.4-0.2-0.6c-0.2-0.3-0.6-0.4-1.1-0.4
		c-0.4,0-0.7,0.1-0.9,0.2c-0.2,0.1-0.3,0.3-0.3,0.5c0,0.2,0.1,0.4,0.3,0.5c0.2,0.1,0.8,0.3,2,0.5c0.8,0.2,1.3,0.4,1.7,0.8
		c0.4,0.4,0.6,0.8,0.6,1.4c0,0.7-0.3,1.3-0.8,1.8c-0.5,0.5-1.4,0.7-2.5,0.7c-1.1,0-2-0.2-2.5-0.7S41,26.3,41,25.5H42.9z"/>
	<path class="st14" d="M51.2,20.6V25c0,0.4,0,0.7,0.1,0.9c0.2,0.4,0.5,0.5,1,0.5c0.6,0,1.1-0.3,1.3-0.8c0.1-0.3,0.2-0.7,0.2-1.1
		v-3.9h1.9v7.2H54v-1c0,0-0.1,0.1-0.1,0.2c-0.1,0.1-0.2,0.2-0.3,0.3c-0.3,0.3-0.6,0.4-0.9,0.5c-0.3,0.1-0.6,0.1-1,0.1
		c-1.1,0-1.8-0.4-2.2-1.2c-0.2-0.4-0.3-1-0.3-1.9v-4.3H51.2z"/>
	<path class="st14" d="M67,20.6c0.3,0.1,0.6,0.3,0.8,0.6c0.2,0.3,0.3,0.6,0.4,0.9c0,0.2,0.1,0.6,0.1,1.1l0,4.5h-1.9v-4.6
		c0-0.3,0-0.5-0.1-0.7C66,22.2,65.7,22,65.3,22c-0.5,0-0.9,0.2-1.1,0.6c-0.1,0.2-0.2,0.5-0.2,0.8v4.3h-1.9v-4.3c0-0.4,0-0.7-0.1-0.9
		c-0.2-0.3-0.5-0.5-0.9-0.5c-0.5,0-0.9,0.2-1.1,0.5c-0.1,0.2-0.2,0.5-0.2,0.9v4.3h-1.9v-7.2h1.8v1.1c0.2-0.4,0.5-0.6,0.7-0.8
		c0.4-0.3,0.8-0.4,1.4-0.4c0.6,0,1,0.1,1.3,0.4c0.3,0.2,0.5,0.5,0.6,0.9c0.2-0.4,0.6-0.7,0.9-0.9c0.4-0.2,0.8-0.3,1.3-0.3
		C66.3,20.4,66.6,20.5,67,20.6z"/>
	<path class="st14" d="M75,20.8c0.5,0.2,0.9,0.6,1.2,1.1c0.3,0.4,0.5,0.9,0.6,1.5c0.1,0.3,0.1,0.8,0.1,1.4h-5.3
		c0,0.7,0.3,1.2,0.8,1.5c0.3,0.2,0.6,0.3,1,0.3c0.4,0,0.8-0.1,1-0.3c0.1-0.1,0.3-0.3,0.4-0.5h1.9c-0.1,0.4-0.3,0.9-0.7,1.3
		c-0.6,0.7-1.6,1.1-2.7,1.1c-1,0-1.8-0.3-2.5-0.9c-0.7-0.6-1.1-1.6-1.1-2.9c0-1.2,0.3-2.2,1-2.9c0.7-0.7,1.5-1,2.6-1
		C74,20.4,74.5,20.5,75,20.8z M72.2,22.4c-0.3,0.3-0.4,0.6-0.5,1.1H75c0-0.5-0.2-0.9-0.5-1.1c-0.3-0.3-0.7-0.4-1.1-0.4
		C72.9,22,72.5,22.1,72.2,22.4z"/>
</g>
</svg>
