<?xml version="1.0" encoding="utf-8"?>
<!-- Generator: Adobe Illustrator 21.0.0, SVG Export Plug-In . SVG Version: 6.00 Build 0)  -->
<svg version="1.1" id="Layer_1" xmlns="http://www.w3.org/2000/svg" xmlns:xlink="http://www.w3.org/1999/xlink" x="0px" y="0px"
	 viewBox="0 0 50 50" style="enable-background:new 0 0 50 50;" xml:space="preserve">
<style type="text/css">
	.st0{fill:#010000;}
	.st1{fill:none;stroke:#000000;stroke-width:0.35;stroke-miterlimit:10;}
	.st2{fill:none;stroke:#000000;stroke-linecap:round;stroke-linejoin:round;stroke-dasharray:0,2.856;}
	.st3{fill:none;stroke:#C0C0C0;stroke-linecap:round;stroke-linejoin:round;stroke-dasharray:0,2.856;}
	.st4{fill:none;stroke:#000000;stroke-linecap:round;stroke-linejoin:round;}
	.st5{fill:none;stroke:#000000;stroke-width:0.25;}
	.st6{fill:none;stroke:#000000;stroke-width:0.5;stroke-miterlimit:10;}
	.st7{fill:#2828BC;}
	.st8{fill:#707070;}
	.st9{fill:none;stroke:#C0C0C0;stroke-width:0.25;stroke-miterlimit:10;}
	.st10{fill:none;stroke:#000000;stroke-miterlimit:10;}
	.st11{fill:#C0C0C0;}
	.st12{fill:none;stroke:#C0C0C0;stroke-width:0.25;stroke-miterlimit:10;stroke-dasharray:1.2775,1.2775;}
	.st13{fill:none;stroke:#C0C0C0;stroke-width:0.25;stroke-miterlimit:10;stroke-dasharray:2.0637,2.0637;}
	.st14{fill:#FFFFFF;}
	.st15{fill:#1D1D1B;}
	.st16{fill:#231F20;}
</style>
<path class="st14" d="M31.2,33.8c-0.9,0.4-1.6,0.7-2.3,0.8c-0.7,0.2-1.4,0.2-2.2,0.2c-0.9,0-1.7-0.1-2.4-0.3c-0.7-0.2-1.3-0.6-1.8-1
	c-0.5-0.4-0.8-0.9-1-1.4c-0.2-0.5-0.3-1.2-0.3-2.1v-7h-2.2v-2.8c0.8-0.3,1.5-0.6,2-1.1c0.6-0.5,1-1.1,1.3-1.7
	c0.3-0.7,0.6-1.5,0.7-2.5h2.8v5.1h4.7v3.1h-4.7v5.1c0,1.2,0.1,1.9,0.2,2.2c0.1,0.3,0.4,0.6,0.7,0.8c0.4,0.3,0.9,0.4,1.5,0.4
	c1,0,2-0.3,3-1V33.8z"/>
<path class="st14" d="M25,49C11.8,49,1,38.2,1,25S11.8,1,25,1s24,10.7,24,24S38.2,49,25,49z M25,3C12.8,3,3,12.8,3,25s9.9,22,22,22
	s22-9.9,22-22S37.2,3,25,3z"/>
</svg>
