<?xml version="1.0" encoding="utf-8"?>
<!-- Generator: Adobe Illustrator 21.0.0, SVG Export Plug-In . SVG Version: 6.00 Build 0)  -->
<svg version="1.1" id="Layer_1" xmlns="http://www.w3.org/2000/svg" xmlns:xlink="http://www.w3.org/1999/xlink" x="0px" y="0px"
	 viewBox="0 0 50 50" style="enable-background:new 0 0 50 50;" xml:space="preserve">
<style type="text/css">
	.st0{fill:#010000;}
	.st1{fill:none;stroke:#000000;stroke-width:0.35;stroke-miterlimit:10;}
	.st2{fill:none;stroke:#000000;stroke-linecap:round;stroke-linejoin:round;stroke-dasharray:0,2.856;}
	.st3{fill:none;stroke:#C0C0C0;stroke-linecap:round;stroke-linejoin:round;stroke-dasharray:0,2.856;}
	.st4{fill:none;stroke:#000000;stroke-linecap:round;stroke-linejoin:round;}
	.st5{fill:none;stroke:#000000;stroke-width:0.25;}
	.st6{fill:none;stroke:#000000;stroke-width:0.5;stroke-miterlimit:10;}
	.st7{fill:#2828BC;}
	.st8{fill:#707070;}
	.st9{fill:none;stroke:#C0C0C0;stroke-width:0.25;stroke-miterlimit:10;}
	.st10{fill:none;stroke:#000000;stroke-miterlimit:10;}
	.st11{fill:#C0C0C0;}
	.st12{fill:none;stroke:#C0C0C0;stroke-width:0.25;stroke-miterlimit:10;stroke-dasharray:1.2775,1.2775;}
	.st13{fill:none;stroke:#C0C0C0;stroke-width:0.25;stroke-miterlimit:10;stroke-dasharray:2.0637,2.0637;}
	.st14{fill:#FFFFFF;}
	.st15{fill:#1D1D1B;}
	.st16{fill:#231F20;}
</style>
<path class="st14" d="M15,25c0-1.8,0.4-3.5,1.3-5c0.9-1.5,2.1-2.7,3.6-3.6c1.5-0.9,3.2-1.3,5-1.3c1.8,0,3.5,0.4,5,1.3
	c1.5,0.9,2.7,2.1,3.6,3.6c0.9,1.5,1.3,3.2,1.3,5s-0.4,3.5-1.3,5c-0.9,1.5-2.1,2.7-3.6,3.6c-1.5,0.9-3.2,1.3-5,1.3
	c-1.8,0-3.5-0.4-5-1.3c-1.5-0.9-2.7-2.1-3.6-3.6C15.4,28.5,15,26.8,15,25z M16.7,25c0,2.1,0.7,3.9,2.1,5.5c0.6-1.3,1.7-2.4,3-3.6
	c1.4-1.1,2.7-1.8,4.1-2.1c-0.2-0.5-0.4-0.9-0.6-1.3c-2.3,0.7-4.8,1.1-7.4,1.1c-0.5,0-0.9,0-1.2,0c0,0.1,0,0.1,0,0.2
	C16.7,24.9,16.7,24.9,16.7,25z M16.9,22.9c0.3,0,0.7,0,1.3,0c2.2,0,4.3-0.3,6.3-0.9c-1-1.8-2.1-3.3-3.3-4.5c-1.1,0.5-2,1.3-2.7,2.2
	C17.8,20.7,17.2,21.8,16.9,22.9z M19.9,31.6c1.5,1.2,3.2,1.8,5.1,1.8c1,0,2-0.2,2.9-0.6c-0.3-2.3-0.8-4.5-1.6-6.6
	c-1.2,0.3-2.5,0.9-3.7,2C21.4,29.3,20.5,30.4,19.9,31.6z M23,16.9c1.2,1.2,2.3,2.7,3.3,4.5c1.8-0.8,3.2-1.7,4.1-2.9
	c-1.5-1.3-3.3-1.9-5.3-1.9C24.3,16.7,23.6,16.8,23,16.9z M26.9,22.9c0.2,0.4,0.4,1,0.7,1.6c1-0.1,2.1-0.1,3.2-0.1
	c0.8,0,1.6,0,2.5,0.1c-0.1-1.8-0.8-3.4-2-4.8C30.5,20.9,29,22,26.9,22.9z M28.1,25.9c0.7,2,1.1,4,1.4,6.1c1.1-0.7,1.9-1.6,2.6-2.6
	c0.7-1.1,1.1-2.2,1.2-3.5c-1-0.1-1.9-0.1-2.7-0.1C29.9,25.8,29.1,25.9,28.1,25.9z"/>
<path class="st14" d="M25,49C11.8,49,1,38.2,1,25S11.8,1,25,1s24,10.7,24,24S38.2,49,25,49z M25,3C12.8,3,3,12.8,3,25s9.9,22,22,22
	s22-9.9,22-22S37.2,3,25,3z"/>
</svg>
