<?xml version="1.0" encoding="utf-8"?>
<!-- Generator: Adobe Illustrator 21.0.0, SVG Export Plug-In . SVG Version: 6.00 Build 0)  -->
<svg version="1.1" id="Layer_1" xmlns="http://www.w3.org/2000/svg" xmlns:xlink="http://www.w3.org/1999/xlink" x="0px" y="0px"
	 viewBox="0 0 50 50" style="enable-background:new 0 0 50 50;" xml:space="preserve">
<style type="text/css">
	.st0{fill:#010000;}
	.st1{fill:none;stroke:#000000;stroke-width:0.35;stroke-miterlimit:10;}
	.st2{fill:none;stroke:#000000;stroke-linecap:round;stroke-linejoin:round;stroke-dasharray:0,2.856;}
	.st3{fill:none;stroke:#C0C0C0;stroke-linecap:round;stroke-linejoin:round;stroke-dasharray:0,2.856;}
	.st4{fill:none;stroke:#000000;stroke-linecap:round;stroke-linejoin:round;}
	.st5{fill:none;stroke:#000000;stroke-width:0.25;}
	.st6{fill:none;stroke:#000000;stroke-width:0.5;stroke-miterlimit:10;}
	.st7{fill:#2828BC;}
	.st8{fill:#707070;}
	.st9{fill:none;stroke:#C0C0C0;stroke-width:0.25;stroke-miterlimit:10;}
	.st10{fill:none;stroke:#000000;stroke-miterlimit:10;}
	.st11{fill:#C0C0C0;}
	.st12{fill:none;stroke:#C0C0C0;stroke-width:0.25;stroke-miterlimit:10;stroke-dasharray:1.2775,1.2775;}
	.st13{fill:none;stroke:#C0C0C0;stroke-width:0.25;stroke-miterlimit:10;stroke-dasharray:2.0637,2.0637;}
	.st14{fill:#FFFFFF;}
	.st15{fill:#1D1D1B;}
	.st16{fill:#231F20;}
</style>
<g>
	<g>
		<path class="st14" d="M15.3,21.6h4.1V35h-4.1V21.6z M17.4,15c1.3,0,2.4,1.1,2.4,2.4c0,1.3-1.1,2.4-2.4,2.4c-1.3,0-2.4-1.1-2.4-2.4
			C15,16.1,16.1,15,17.4,15"/>
		<path class="st14" d="M22.1,21.6h4v1.8h0.1c0.6-1,1.9-2.2,3.9-2.2c4.2,0,5,2.8,5,6.4V35h-4.1v-6.5c0-1.5,0-3.5-2.2-3.5
			c-2.2,0-2.5,1.7-2.5,3.4V35h-4.1V21.6z"/>
	</g>
</g>
<path class="st14" d="M25,49C11.8,49,1,38.2,1,25S11.8,1,25,1s24,10.7,24,24S38.2,49,25,49z M25,3C12.8,3,3,12.8,3,25s9.9,22,22,22
	s22-9.9,22-22S37.2,3,25,3z"/>
</svg>
