<?xml version="1.0" encoding="utf-8"?>
<!-- Generator: Adobe Illustrator 21.0.0, SVG Export Plug-In . SVG Version: 6.00 Build 0)  -->
<svg version="1.1" id="Layer_1" xmlns="http://www.w3.org/2000/svg" xmlns:xlink="http://www.w3.org/1999/xlink" x="0px" y="0px"
	 viewBox="0 0 50 50" style="enable-background:new 0 0 50 50;" xml:space="preserve">
<style type="text/css">
	.st0{fill:#010000;}
	.st1{fill:none;stroke:#000000;stroke-width:0.35;stroke-miterlimit:10;}
	.st2{fill:none;stroke:#000000;stroke-linecap:round;stroke-linejoin:round;stroke-dasharray:0,2.856;}
	.st3{fill:none;stroke:#C0C0C0;stroke-linecap:round;stroke-linejoin:round;stroke-dasharray:0,2.856;}
	.st4{fill:none;stroke:#000000;stroke-linecap:round;stroke-linejoin:round;}
	.st5{fill:none;stroke:#000000;stroke-width:0.25;}
	.st6{fill:none;stroke:#000000;stroke-width:0.5;stroke-miterlimit:10;}
	.st7{fill:#2828BC;}
	.st8{fill:#707070;}
	.st9{fill:none;stroke:#C0C0C0;stroke-width:0.25;stroke-miterlimit:10;}
	.st10{fill:none;stroke:#000000;stroke-miterlimit:10;}
	.st11{fill:#C0C0C0;}
	.st12{fill:none;stroke:#C0C0C0;stroke-width:0.25;stroke-miterlimit:10;stroke-dasharray:1.2775,1.2775;}
	.st13{fill:none;stroke:#C0C0C0;stroke-width:0.25;stroke-miterlimit:10;stroke-dasharray:2.0637,2.0637;}
	.st14{fill:#FFFFFF;}
	.st15{fill:#1D1D1B;}
	.st16{fill:#231F20;}
</style>
<path class="st14" d="M25,49C11.8,49,1,38.2,1,25S11.8,1,25,1s24,10.7,24,24S38.2,49,25,49z M25,3C12.8,3,3,12.8,3,25s9.9,22,22,22
	s22-9.9,22-22S37.2,3,25,3z"/>
<path class="st14" d="M15,29.5c0-3,0-5.9,0-8.9c0-0.1,0-0.3,0-0.4c0.1-1.1,0.5-2,1.2-2.9c1.2-1.5,2.7-2.3,4.6-2.3c2.8,0,5.6,0,8.3,0
	c0.6,0,1.3,0.1,1.9,0.3c2.4,0.8,3.9,3,3.9,5.5c0,2.8,0,5.5,0,8.3c0,0.2,0,0.4,0,0.7c-0.2,1.3-0.7,2.4-1.6,3.3
	c-0.9,1-2.1,1.6-3.4,1.8c-0.2,0-0.4,0-0.6,0.1c-3,0-5.9,0-8.9,0c-0.1,0-0.1,0-0.2,0c-1.1-0.1-2.2-0.5-3.1-1.2c-1.2-1-2-2.2-2.2-3.8
	C15,29.8,15,29.6,15,29.5z M25,16.8c-1.4,0-2.7,0-4.1,0c-0.3,0-0.7,0-1,0.1c-1.8,0.4-3.1,2.1-3.1,3.9c0,2.7,0,5.5,0,8.2
	c0,0.5,0.1,1,0.3,1.4c0.6,1.6,2.1,2.6,3.8,2.6c2.7,0,5.5,0,8.2,0c0.3,0,0.7,0,1-0.1c1.8-0.4,3.1-2.1,3.1-3.9c0-2.8,0-5.5,0-8.3
	c0-0.6-0.1-1.2-0.4-1.8c-0.8-1.5-2-2.2-3.7-2.3C27.7,16.8,26.4,16.8,25,16.8z"/>
<path class="st14" d="M29.4,35c0.2,0,0.4,0,0.6-0.1c1.3-0.2,2.5-0.8,3.4-1.8c0.9-0.9,1.4-2.1,1.6-3.3c0-0.2,0-0.4,0-0.7
	c0-2.8,0-5.5,0-8.3c0-2.5-1.6-4.7-3.9-5.5c-0.6-0.2-1.2-0.3-1.9-0.3c-2.8,0-5.6,0-8.3,0c-1.9,0-3.4,0.8-4.6,2.3
	c-0.7,0.8-1.1,1.8-1.2,2.9c0,0.1,0,0.3,0,0.4c0-1.9,0-3.7,0-5.6c6.7,0,13.3,0,20,0c0,6.7,0,13.3,0,20C33.2,35,31.3,35,29.4,35z"/>
<path class="st14" d="M15,29.5c0,0.2,0,0.4,0.1,0.6c0.3,1.5,1,2.8,2.2,3.8c0.9,0.7,1.9,1.1,3.1,1.2c0.1,0,0.1,0,0.2,0
	c-1.9,0-3.7,0-5.6,0C15,33.2,15,31.3,15,29.5z"/>
<path class="st14" d="M19.6,25c0-3,2.5-5.5,5.5-5.5c3,0,5.5,2.5,5.5,5.5c0,3-2.5,5.5-5.5,5.5C22,30.5,19.6,28,19.6,25z M21.4,25
	c0,2,1.6,3.6,3.6,3.6c2,0,3.6-1.6,3.6-3.6c0-2-1.6-3.6-3.6-3.6C23,21.4,21.4,23,21.4,25z"/>
<circle class="st14" cx="30.4" cy="19.7" r="0.8"/>
</svg>
